<?xml version="1.0" encoding="utf-8"?>
<!-- Generator: Adobe Illustrator 14.0.0, SVG Export Plug-In . SVG Version: 6.00 Build 43363)  -->
<!DOCTYPE svg PUBLIC "-//W3C//DTD SVG 1.1//EN" "http://www.w3.org/Graphics/SVG/1.1/DTD/svg11.dtd">
<svg version="1.1" id="Layer_1" xmlns="http://www.w3.org/2000/svg" xmlns:xlink="http://www.w3.org/1999/xlink" x="0px" y="0px"
	 width="120px" height="81px" viewBox="0 0 120 81" enable-background="new 0 0 120 81" xml:space="preserve">
<g>
	<g>
		<linearGradient id="SVGID_1_" gradientUnits="userSpaceOnUse" x1="48.0815" y1="33.4751" x2="112.6768" y2="33.4751">
			<stop  offset="0" style="stop-color:#FFD066"/>
			<stop  offset="1" style="stop-color:#F37E20"/>
		</linearGradient>
		<path fill-rule="evenodd" clip-rule="evenodd" fill="url(#SVGID_1_)" d="M98.669,62.64c-1.885,1.379-3.864,2.537-5.906,3.479
			c0.013,0.019-5.232-6.088-5.232-6.088l-6.018-7.525l-6.225-11.623l10.651-6.105L69.066,28.42l5.66-8.716l-9.48-4.341l-3.526-3.854
			l-4.985,5.006l-8.653,2.811c2.352-4.558,5.771-8.656,10.192-11.891c15.243-11.155,36.646-7.841,47.8,7.404
			C117.229,30.083,113.914,51.484,98.669,62.64z"/>
		<g>
			<path fill-rule="evenodd" clip-rule="evenodd" fill="#090909" d="M35.44,34.773c0,0,13.242-2.965,18.213-6.426
				c0.771-3.563-7.184-8.599-7.184-8.599s9.111-3.233,12.459-6.056c1.739-1.464,2.755-5.526,2.755-5.526s1.474,4.459,2.836,5.565
				c1.36,1.105,9.246,4.17,12.911,6.043c-2.826,0.027-7.169,7.128-7.308,8.35c5.712,2.646,18.098,6.637,18.098,6.637
				s-8.239,4.301-11.53,6.128c-2.669,2.513,17.925,27.24,17.925,27.24S74.597,49.027,73.996,40.872
				c0.35-2.264,10.468-5.942,10.468-5.942c-6.62-0.468-16.22-5.113-16.235-6.515c-0.017-1.402,3.562-6.742,5.155-8.617
				c-3.184-2.374-10.044-2.952-11.649-7.586c-1.379,4.605-11.775,7.638-11.775,7.638s5.687,3.71,5.667,8.349
				c-3.437,4.932-14.622,6.726-14.622,6.726s7.39,2.127,8.263,5.582c0.266,2.825-2.63,8.349-4.721,11.164
				c0.51-3.537,2.407-7.205,2.529-11.13C44.965,37.425,35.44,34.773,35.44,34.773z"/>
		</g>
	</g>
	<g>
		<path fill="#CE5C28" d="M5.627,64.014c0,0.64,0.135,1.115,0.406,1.426c0.28,0.31,0.677,0.465,1.189,0.465
			c0.31,0,0.59-0.03,0.842-0.092c0.116-0.03,0.218-0.063,0.305-0.1c0.087-0.035,0.165-0.067,0.232-0.099l0.087,2.583
			c-0.087,0.028-0.212,0.058-0.377,0.088c-0.165,0.027-0.363,0.063-0.595,0.101c-0.464,0.058-0.963,0.087-1.495,0.087
			c-1.383,0-2.418-0.338-3.105-1.016C2.42,66.8,2.072,65.793,2.072,64.438v-6.893c0-0.532,0.128-1.049,0.385-1.552
			c0.256-0.503,0.566-0.958,0.928-1.364c0.363-0.406,0.748-0.74,1.153-1.001c0.407-0.262,0.765-0.411,1.074-0.45l0.015,3.643h2.902
			v2.539H5.627V64.014z"/>
		<path fill="#CE5C28" d="M18.127,56.574c0.56,0,1.072,0.106,1.535,0.319c0.464,0.213,0.86,0.493,1.188,0.842
			c0.329,0.348,0.583,0.747,0.761,1.197c0.179,0.449,0.268,0.911,0.268,1.386v7.907h-3.613v-6.604c0-0.088-0.039-0.25-0.116-0.486
			s-0.198-0.48-0.361-0.731c-0.165-0.251-0.376-0.476-0.637-0.673c-0.26-0.198-0.579-0.298-0.955-0.298
			c-0.376,0-0.721,0.068-1.035,0.204c-0.313,0.135-0.583,0.342-0.81,0.621c-0.227,0.28-0.403,0.631-0.528,1.051
			c-0.125,0.421-0.188,0.915-0.188,1.485v5.432h-3.599V55.399c0-0.358,0.065-0.714,0.197-1.066c0.131-0.354,0.301-0.69,0.51-1.01
			s0.447-0.618,0.714-0.899c0.267-0.28,0.532-0.522,0.794-0.725c0.262-0.204,0.515-0.363,0.758-0.48
			c0.243-0.115,0.447-0.173,0.612-0.173v7.487l0.014-0.015c0.241-0.328,0.505-0.614,0.79-0.856c0.285-0.241,0.567-0.44,0.848-0.595
			c0.28-0.154,0.545-0.273,0.796-0.355c0.251-0.082,0.464-0.128,0.637-0.138c0.425-0.039,0.746-0.048,0.963-0.029
			C17.888,56.564,18.04,56.574,18.127,56.574z"/>
		<path fill="#CE5C28" d="M31.339,68.197v-1.899c-0.193,0.253-0.387,0.487-0.58,0.701c-0.165,0.185-0.341,0.366-0.53,0.547
			s-0.365,0.313-0.529,0.401c-0.639,0.351-1.34,0.525-2.104,0.525c-1.316,0-2.346-0.324-3.091-0.972
			c-0.745-0.639-1.117-1.471-1.117-2.496c0-1.248,0.493-2.206,1.479-2.873c0.494-0.329,1.096-0.583,1.807-0.762
			c0.711-0.18,1.535-0.264,2.474-0.254l1.77,0.029c-0.039-0.281-0.121-0.552-0.247-0.813c-0.078-0.145-0.182-0.289-0.312-0.435
			c-0.131-0.146-0.293-0.285-0.486-0.421c-0.029-0.02-0.058-0.039-0.087-0.058c-0.029-0.02-0.058-0.039-0.087-0.059
			c-0.039-0.019-0.078-0.041-0.116-0.065s-0.082-0.046-0.131-0.065c-0.068-0.019-0.135-0.038-0.203-0.058
			c-0.068-0.02-0.145-0.038-0.233-0.059h-0.086c-0.068-0.01-0.136-0.017-0.203-0.021c-0.068-0.004-0.15-0.008-0.247-0.008
			c-0.329,0-0.655,0.027-0.979,0.08c-0.325,0.054-0.656,0.133-0.994,0.239c-0.339,0.106-0.658,0.23-0.958,0.37
			c-0.299,0.141-0.571,0.303-0.813,0.486v-2.743c0.484-0.261,1.127-0.473,1.93-0.639c0.416-0.087,0.827-0.154,1.233-0.202
			s0.813-0.072,1.219-0.072h1.683c0.561,0,1.071,0.104,1.531,0.312c0.46,0.208,0.854,0.486,1.183,0.835
			c0.329,0.348,0.581,0.746,0.754,1.197c0.174,0.449,0.261,0.911,0.261,1.385v1.959h-0.014l0.014,5.906H31.339z M31.18,63.017
			c-0.116,0.049-0.305,0.072-0.566,0.072c-0.136,0-0.288,0.003-0.458,0.008c-0.169,0.006-0.355,0.008-0.559,0.008
			c-0.977,0.029-1.688,0.169-2.132,0.419c-0.464,0.278-0.697,0.673-0.697,1.183c0,0.395,0.155,0.707,0.464,0.939
			c0.3,0.23,0.74,0.347,1.32,0.347c0.784,0,1.417-0.29,1.901-0.867c0.484-0.568,0.726-1.179,0.726-1.833V63.017z"/>
		<path fill="#CE5C28" d="M52.829,56.878c0.464,0.214,0.861,0.494,1.19,0.842c0.329,0.35,0.583,0.748,0.762,1.198
			s0.269,0.916,0.269,1.4v7.894h-3.614v-6.603c0-0.087-0.012-0.249-0.036-0.486c-0.024-0.236-0.087-0.48-0.189-0.732
			c-0.101-0.251-0.256-0.477-0.463-0.675c-0.209-0.198-0.501-0.297-0.878-0.297c-0.745,0-1.347,0.275-1.807,0.826
			c-0.459,0.552-0.689,1.398-0.689,2.54v5.427h-3.352H43.76h-0.014h0.014v-6.603c0-0.087-0.012-0.249-0.036-0.486
			c-0.024-0.236-0.087-0.48-0.188-0.732c-0.101-0.251-0.255-0.477-0.462-0.675c-0.208-0.198-0.499-0.297-0.875-0.297
			c-0.376,0-0.719,0.067-1.027,0.203c-0.308,0.135-0.575,0.341-0.802,0.616c-0.227,0.276-0.403,0.626-0.528,1.052
			c-0.126,0.426-0.188,0.924-0.188,1.495v5.427H36.07v-7.894c0-0.484,0.104-0.95,0.312-1.4s0.486-0.849,0.834-1.198
			c0.348-0.348,0.747-0.628,1.197-0.842c0.45-0.212,0.921-0.317,1.415-0.317h3.047c0.445,0,0.844,0.055,1.197,0.166
			c0.353,0.111,0.663,0.246,0.929,0.406s0.491,0.337,0.675,0.529c0.184,0.194,0.329,0.368,0.436,0.522
			c0.145-0.202,0.338-0.403,0.581-0.602c0.241-0.198,0.507-0.373,0.797-0.522c0.291-0.15,0.588-0.271,0.893-0.363
			c0.305-0.092,0.583-0.137,0.834-0.137h2.075C51.852,56.561,52.365,56.666,52.829,56.878z"/>
		<path fill="#CE5C28" d="M59.823,63.641l-0.014-0.015c0.154,0.663,0.387,1.164,0.696,1.5c0.551,0.577,1.388,0.866,2.51,0.866
			c0.734,0,1.427-0.104,2.075-0.314c0.687-0.21,1.146-0.385,1.379-0.528v2.686c-0.252,0.105-0.521,0.196-0.806,0.268
			c-0.286,0.073-0.583,0.139-0.893,0.196c-0.629,0.116-1.325,0.174-2.09,0.174c-1.905,0-3.4-0.526-4.483-1.582
			c-0.551-0.522-0.958-1.15-1.219-1.886s-0.392-1.572-0.392-2.51v-0.131v-0.102v-0.058v-0.378v-0.029V61.29
			c0-0.319,0.046-0.657,0.138-1.015c0.092-0.358,0.223-0.712,0.392-1.061c0.168-0.348,0.372-0.682,0.609-1.001
			c0.237-0.318,0.498-0.6,0.784-0.842c0.284-0.241,0.592-0.436,0.92-0.581c0.33-0.145,0.668-0.217,1.017-0.217H62h1.495
			c0.521,0,0.993,0.106,1.414,0.319c0.422,0.213,0.781,0.493,1.082,0.842c0.3,0.348,0.531,0.747,0.695,1.197
			c0.164,0.449,0.247,0.911,0.247,1.386v1.856c0,0.185,0.003,0.368,0.008,0.552c0.004,0.185,0.007,0.372,0.007,0.565v0.276h-7.125
			V63.641z M60.187,61.392h3.424h0.479l0.231,0.015c-0.01-0.793-0.208-1.398-0.595-1.814c-0.377-0.406-0.919-0.608-1.625-0.608
			c-0.745,0-1.334,0.313-1.771,0.943c-0.261,0.366-0.44,0.855-0.537,1.465H60.187z"/>
		<path fill="#CE5C28" d="M68.457,55.384c0-0.348,0.065-0.698,0.195-1.051c0.131-0.354,0.303-0.69,0.516-1.01
			s0.45-0.616,0.711-0.892c0.263-0.275,0.525-0.515,0.791-0.719c0.266-0.203,0.52-0.362,0.763-0.479
			c0.24-0.116,0.444-0.174,0.608-0.174v17.165h-3.584V55.384z"/>
	</g>
	<g>
		<path fill="#090909" d="M6.818,73.137c0,0.077-0.004,0.144-0.012,0.199c-0.008,0.058-0.021,0.104-0.04,0.137
			c-0.018,0.035-0.041,0.061-0.066,0.076c-0.026,0.017-0.056,0.025-0.088,0.025h-2.21v6.813c0,0.032-0.008,0.061-0.024,0.084
			c-0.016,0.025-0.044,0.045-0.085,0.059s-0.094,0.026-0.161,0.036c-0.066,0.011-0.15,0.016-0.252,0.016
			c-0.097,0-0.18-0.005-0.249-0.016c-0.068-0.01-0.123-0.022-0.164-0.036c-0.041-0.014-0.068-0.033-0.085-0.059
			c-0.017-0.023-0.024-0.052-0.024-0.084v-6.813H1.146c-0.032,0-0.062-0.009-0.088-0.025c-0.026-0.016-0.047-0.041-0.063-0.076
			c-0.017-0.033-0.03-0.079-0.04-0.137c-0.01-0.056-0.015-0.122-0.015-0.199s0.005-0.145,0.015-0.204
			c0.01-0.059,0.023-0.106,0.04-0.143c0.016-0.036,0.037-0.063,0.063-0.079c0.026-0.016,0.056-0.023,0.088-0.023h5.466
			c0.032,0,0.062,0.008,0.088,0.023c0.026,0.017,0.048,0.043,0.066,0.079s0.032,0.084,0.04,0.143
			C6.814,72.992,6.818,73.06,6.818,73.137z"/>
		<path fill="#090909" d="M10.262,75.286c0,0.089-0.002,0.164-0.006,0.225c-0.004,0.061-0.012,0.108-0.024,0.143
			s-0.027,0.062-0.045,0.079c-0.019,0.019-0.044,0.027-0.076,0.027s-0.072-0.009-0.118-0.027c-0.047-0.018-0.099-0.036-0.158-0.055
			c-0.059-0.018-0.125-0.035-0.197-0.052c-0.073-0.016-0.152-0.024-0.237-0.024c-0.101,0-0.2,0.021-0.297,0.061
			c-0.098,0.041-0.2,0.107-0.307,0.201c-0.107,0.093-0.22,0.216-0.337,0.37c-0.118,0.154-0.248,0.342-0.389,0.564v3.597
			c0,0.031-0.008,0.059-0.024,0.081c-0.017,0.022-0.043,0.041-0.079,0.058c-0.037,0.017-0.087,0.028-0.152,0.036
			c-0.065,0.008-0.148,0.013-0.249,0.013c-0.097,0-0.178-0.005-0.243-0.013c-0.064-0.008-0.116-0.02-0.155-0.036
			s-0.065-0.035-0.079-0.058c-0.014-0.022-0.021-0.05-0.021-0.081v-5.467c0-0.033,0.006-0.061,0.019-0.082
			c0.012-0.022,0.036-0.042,0.072-0.06c0.037-0.02,0.083-0.032,0.14-0.037c0.057-0.006,0.131-0.01,0.225-0.01
			c0.089,0,0.163,0.004,0.222,0.01c0.059,0.005,0.104,0.018,0.136,0.037c0.033,0.018,0.056,0.037,0.07,0.06
			c0.014,0.021,0.021,0.049,0.021,0.082v0.796c0.15-0.219,0.291-0.396,0.422-0.535c0.132-0.138,0.256-0.245,0.374-0.325
			c0.117-0.077,0.234-0.132,0.349-0.164c0.115-0.03,0.231-0.045,0.349-0.045c0.052,0,0.112,0.003,0.179,0.009
			c0.066,0.006,0.136,0.018,0.209,0.034c0.073,0.016,0.139,0.034,0.197,0.055s0.1,0.04,0.125,0.061
			c0.024,0.02,0.041,0.04,0.049,0.058c0.008,0.019,0.015,0.042,0.021,0.069c0.006,0.029,0.01,0.07,0.012,0.125
			S10.262,75.193,10.262,75.286z"/>
		<path fill="#090909" d="M15.266,80.399c0,0.049-0.017,0.085-0.048,0.109c-0.033,0.024-0.077,0.043-0.134,0.055
			s-0.14,0.019-0.249,0.019c-0.105,0-0.189-0.007-0.252-0.019c-0.063-0.012-0.108-0.03-0.137-0.055s-0.042-0.061-0.042-0.109v-0.547
			c-0.239,0.256-0.505,0.454-0.799,0.596S13,80.661,12.673,80.661c-0.288,0-0.547-0.037-0.78-0.113
			c-0.233-0.074-0.432-0.183-0.595-0.324c-0.164-0.142-0.292-0.316-0.383-0.522c-0.091-0.207-0.136-0.441-0.136-0.704
			c0-0.308,0.063-0.575,0.188-0.802s0.306-0.415,0.541-0.564c0.235-0.15,0.522-0.263,0.862-0.338
			c0.34-0.074,0.723-0.111,1.148-0.111h0.753v-0.426c0-0.211-0.022-0.396-0.067-0.559s-0.116-0.297-0.215-0.404
			c-0.1-0.106-0.228-0.188-0.386-0.242s-0.353-0.083-0.583-0.083c-0.247,0-0.468,0.029-0.665,0.089
			c-0.196,0.059-0.369,0.123-0.516,0.194c-0.148,0.071-0.271,0.136-0.371,0.194c-0.099,0.059-0.172,0.087-0.221,0.087
			c-0.033,0-0.061-0.007-0.085-0.023c-0.024-0.016-0.045-0.041-0.064-0.072c-0.018-0.032-0.031-0.074-0.04-0.125
			c-0.008-0.051-0.012-0.106-0.012-0.167c0-0.102,0.007-0.181,0.021-0.239c0.014-0.06,0.049-0.115,0.104-0.167
			c0.054-0.054,0.148-0.115,0.282-0.186c0.134-0.071,0.288-0.136,0.461-0.194s0.364-0.108,0.571-0.146s0.415-0.058,0.625-0.058
			c0.393,0,0.727,0.045,1.002,0.134c0.275,0.089,0.498,0.22,0.668,0.392s0.293,0.386,0.37,0.641
			c0.077,0.256,0.116,0.553,0.116,0.893V80.399z M14.27,77.903h-0.856c-0.276,0-0.515,0.023-0.717,0.07
			c-0.202,0.047-0.37,0.115-0.504,0.206c-0.133,0.091-0.232,0.2-0.294,0.328s-0.094,0.274-0.094,0.44
			c0,0.283,0.09,0.509,0.271,0.677c0.18,0.169,0.432,0.253,0.756,0.253c0.263,0,0.507-0.067,0.732-0.201s0.46-0.338,0.708-0.613
			V77.903z"/>
		<path fill="#090909" d="M21.381,74.916c0,0.016-0.001,0.033-0.003,0.051c-0.002,0.019-0.005,0.037-0.009,0.059
			c-0.004,0.02-0.009,0.042-0.016,0.066c-0.006,0.024-0.013,0.051-0.021,0.079l-1.865,5.191c-0.016,0.046-0.037,0.082-0.063,0.109
			c-0.026,0.029-0.066,0.051-0.119,0.067c-0.052,0.017-0.119,0.027-0.2,0.034c-0.081,0.006-0.182,0.009-0.304,0.009
			s-0.223-0.005-0.304-0.013c-0.081-0.008-0.146-0.02-0.197-0.036s-0.09-0.038-0.119-0.066c-0.028-0.028-0.05-0.063-0.066-0.104
			l-1.859-5.191c-0.016-0.049-0.029-0.091-0.039-0.128c-0.011-0.036-0.017-0.063-0.019-0.082c-0.002-0.018-0.003-0.033-0.003-0.045
			c0-0.033,0.008-0.062,0.024-0.085c0.016-0.024,0.043-0.044,0.082-0.059c0.038-0.014,0.089-0.023,0.152-0.027
			c0.063-0.004,0.141-0.006,0.234-0.006c0.117,0,0.211,0.004,0.282,0.01c0.071,0.005,0.126,0.018,0.164,0.032
			c0.039,0.017,0.067,0.037,0.085,0.062s0.036,0.055,0.052,0.091l1.542,4.506l0.024,0.074l0.018-0.074l1.524-4.506
			c0.008-0.036,0.022-0.066,0.042-0.091s0.049-0.045,0.088-0.062c0.039-0.015,0.091-0.027,0.158-0.032
			c0.067-0.006,0.155-0.01,0.265-0.01c0.093,0,0.17,0.002,0.23,0.006c0.061,0.004,0.108,0.015,0.143,0.031
			c0.034,0.016,0.059,0.035,0.073,0.058C21.375,74.855,21.381,74.883,21.381,74.916z"/>
		<path fill="#090909" d="M27.06,77.424c0,0.157-0.04,0.271-0.119,0.337c-0.08,0.067-0.17,0.101-0.272,0.101H23.07
			c0,0.304,0.031,0.576,0.092,0.82c0.061,0.242,0.163,0.45,0.305,0.625c0.142,0.174,0.327,0.309,0.555,0.4
			c0.228,0.094,0.506,0.14,0.836,0.14c0.26,0,0.492-0.021,0.695-0.063s0.379-0.091,0.528-0.143c0.148-0.053,0.271-0.1,0.366-0.144
			c0.096-0.042,0.168-0.063,0.216-0.063c0.029,0,0.054,0.008,0.077,0.021c0.022,0.015,0.039,0.035,0.052,0.064
			c0.012,0.027,0.021,0.068,0.027,0.118c0.006,0.051,0.009,0.112,0.009,0.186c0,0.053-0.002,0.098-0.006,0.136
			c-0.004,0.039-0.009,0.073-0.015,0.104c-0.006,0.03-0.017,0.058-0.031,0.082s-0.032,0.047-0.055,0.07
			c-0.022,0.021-0.088,0.058-0.197,0.108c-0.109,0.052-0.251,0.101-0.425,0.148c-0.174,0.05-0.375,0.094-0.604,0.131
			c-0.229,0.039-0.473,0.059-0.732,0.059c-0.45,0-0.843-0.063-1.181-0.189c-0.338-0.124-0.623-0.312-0.853-0.558
			c-0.231-0.247-0.405-0.557-0.522-0.929c-0.117-0.373-0.176-0.807-0.176-1.3c0-0.471,0.061-0.893,0.183-1.268
			c0.121-0.373,0.296-0.691,0.525-0.953c0.229-0.261,0.505-0.461,0.829-0.602c0.324-0.139,0.686-0.209,1.087-0.209
			c0.429,0,0.794,0.068,1.096,0.207c0.302,0.138,0.55,0.322,0.744,0.556c0.194,0.232,0.337,0.506,0.428,0.819
			c0.091,0.314,0.137,0.649,0.137,1.005V77.424z M26.052,77.126c0.012-0.526-0.105-0.939-0.351-1.239
			c-0.247-0.299-0.613-0.448-1.097-0.448c-0.249,0-0.467,0.046-0.654,0.14c-0.188,0.092-0.344,0.217-0.471,0.37
			c-0.126,0.154-0.224,0.333-0.293,0.537c-0.07,0.205-0.108,0.418-0.116,0.641H26.052z"/>
		<path fill="#090909" d="M29.586,80.395c0,0.031-0.008,0.059-0.024,0.081s-0.042,0.041-0.079,0.058
			c-0.036,0.017-0.087,0.028-0.151,0.036c-0.065,0.008-0.148,0.013-0.249,0.013c-0.097,0-0.179-0.005-0.243-0.013
			s-0.117-0.02-0.155-0.036c-0.038-0.017-0.064-0.035-0.079-0.058s-0.021-0.05-0.021-0.081V72.28c0-0.032,0.007-0.062,0.021-0.086
			c0.014-0.023,0.041-0.044,0.079-0.06c0.039-0.018,0.091-0.029,0.155-0.037s0.146-0.012,0.243-0.012
			c0.101,0,0.184,0.004,0.249,0.012c0.064,0.008,0.115,0.02,0.151,0.037c0.037,0.016,0.063,0.036,0.079,0.06
			c0.016,0.024,0.024,0.054,0.024,0.086V80.395z"/>
		<path fill="#090909" d="M34.87,78.905c0,0.279-0.052,0.528-0.155,0.747c-0.103,0.22-0.25,0.402-0.44,0.553
			c-0.19,0.149-0.417,0.263-0.68,0.341c-0.263,0.076-0.553,0.115-0.869,0.115c-0.194,0-0.379-0.016-0.556-0.045
			c-0.176-0.031-0.334-0.07-0.474-0.117c-0.14-0.046-0.258-0.095-0.355-0.146c-0.097-0.05-0.168-0.096-0.213-0.136
			c-0.044-0.041-0.077-0.098-0.097-0.171c-0.02-0.072-0.03-0.171-0.03-0.297c0-0.077,0.004-0.142,0.012-0.194
			c0.008-0.053,0.018-0.095,0.03-0.128c0.012-0.032,0.029-0.056,0.052-0.07c0.022-0.014,0.047-0.021,0.076-0.021
			c0.044,0,0.11,0.027,0.197,0.082c0.087,0.055,0.194,0.114,0.322,0.179c0.128,0.065,0.278,0.125,0.453,0.18
			s0.375,0.082,0.601,0.082c0.17,0,0.324-0.019,0.462-0.055c0.137-0.036,0.257-0.09,0.358-0.161
			c0.101-0.071,0.179-0.161,0.234-0.271c0.055-0.109,0.082-0.238,0.082-0.388c0-0.154-0.04-0.284-0.119-0.39
			c-0.079-0.104-0.183-0.198-0.313-0.279c-0.13-0.081-0.275-0.152-0.438-0.215c-0.162-0.063-0.329-0.129-0.501-0.198
			c-0.172-0.068-0.34-0.146-0.504-0.233s-0.311-0.193-0.44-0.319c-0.129-0.125-0.234-0.274-0.313-0.449
			c-0.079-0.174-0.119-0.382-0.119-0.625c0-0.215,0.042-0.421,0.125-0.616c0.083-0.196,0.208-0.369,0.374-0.517
			c0.166-0.147,0.373-0.267,0.622-0.355s0.54-0.134,0.872-0.134c0.146,0,0.291,0.013,0.437,0.036
			c0.146,0.025,0.277,0.055,0.395,0.091c0.117,0.037,0.217,0.077,0.3,0.119c0.083,0.043,0.146,0.08,0.188,0.112
			s0.071,0.062,0.085,0.085c0.014,0.024,0.024,0.052,0.03,0.082c0.006,0.031,0.013,0.068,0.019,0.113
			c0.006,0.044,0.009,0.099,0.009,0.163c0,0.068-0.003,0.128-0.009,0.179c-0.006,0.052-0.017,0.093-0.031,0.125
			s-0.031,0.056-0.051,0.07c-0.021,0.014-0.042,0.021-0.067,0.021c-0.036,0-0.089-0.022-0.158-0.066
			c-0.068-0.044-0.158-0.093-0.267-0.143c-0.109-0.051-0.238-0.099-0.385-0.143c-0.148-0.045-0.317-0.066-0.507-0.066
			c-0.17,0-0.32,0.019-0.449,0.057c-0.13,0.039-0.236,0.094-0.319,0.164c-0.083,0.071-0.146,0.155-0.188,0.252
			c-0.042,0.098-0.063,0.203-0.063,0.316c0,0.158,0.04,0.29,0.121,0.397s0.187,0.201,0.316,0.282
			c0.13,0.082,0.277,0.154,0.443,0.219c0.166,0.065,0.335,0.132,0.507,0.2c0.172,0.069,0.342,0.146,0.51,0.231
			c0.168,0.084,0.317,0.188,0.446,0.31c0.13,0.121,0.234,0.268,0.313,0.437C34.831,78.469,34.87,78.671,34.87,78.905z"/>
		<path fill="#090909" d="M38.841,78.475c0-0.224,0.031-0.435,0.091-0.635s0.156-0.395,0.286-0.583
			c0.13-0.188,0.298-0.37,0.507-0.546c0.208-0.177,0.461-0.354,0.756-0.532c-0.162-0.219-0.301-0.417-0.416-0.595
			c-0.115-0.179-0.211-0.345-0.286-0.498c-0.075-0.154-0.128-0.3-0.161-0.44c-0.032-0.141-0.048-0.281-0.048-0.422
			c0-0.252,0.043-0.491,0.127-0.72c0.085-0.229,0.222-0.431,0.41-0.607c0.188-0.177,0.43-0.316,0.726-0.419
			c0.295-0.104,0.654-0.155,1.075-0.155c0.357,0,0.666,0.039,0.926,0.116c0.261,0.076,0.478,0.186,0.65,0.327
			c0.172,0.142,0.302,0.313,0.389,0.514c0.087,0.2,0.13,0.424,0.13,0.671c0,0.239-0.038,0.458-0.115,0.656
			c-0.077,0.197-0.2,0.39-0.37,0.577c-0.17,0.186-0.388,0.371-0.653,0.555c-0.265,0.185-0.586,0.378-0.962,0.58
			c0.137,0.166,0.287,0.339,0.449,0.52c0.162,0.181,0.331,0.361,0.507,0.544c0.176,0.182,0.355,0.361,0.54,0.537
			s0.366,0.346,0.543,0.507c0.081-0.109,0.154-0.233,0.219-0.374c0.065-0.14,0.122-0.287,0.17-0.443
			c0.049-0.155,0.085-0.313,0.109-0.476c0.024-0.163,0.036-0.326,0.036-0.492v-0.219c0-0.041,0.008-0.073,0.021-0.101
			c0.014-0.026,0.038-0.049,0.07-0.066c0.033-0.019,0.08-0.031,0.143-0.039c0.063-0.008,0.145-0.012,0.246-0.012
			c0.089,0,0.165,0.001,0.228,0.005c0.063,0.004,0.114,0.013,0.155,0.027c0.041,0.015,0.07,0.036,0.088,0.067
			c0.019,0.03,0.027,0.072,0.027,0.124v0.152c0,0.227-0.019,0.449-0.058,0.668c-0.038,0.219-0.091,0.433-0.158,0.641
			c-0.067,0.209-0.15,0.408-0.249,0.599c-0.1,0.19-0.21,0.366-0.331,0.527c0.182,0.146,0.341,0.268,0.477,0.365
			c0.135,0.097,0.251,0.176,0.346,0.236s0.174,0.104,0.237,0.127c0.063,0.025,0.114,0.037,0.155,0.037
			c0.041,0,0.08-0.002,0.116-0.006s0.066,0.002,0.088,0.018c0.022,0.017,0.04,0.049,0.052,0.098
			c0.012,0.048,0.018,0.124,0.018,0.224c0,0.102-0.002,0.183-0.006,0.244c-0.004,0.06-0.011,0.106-0.021,0.137
			s-0.027,0.056-0.051,0.075c-0.025,0.021-0.069,0.039-0.134,0.055c-0.065,0.017-0.15,0.024-0.255,0.024
			c-0.081,0-0.17-0.014-0.267-0.042c-0.097-0.029-0.21-0.078-0.34-0.148c-0.129-0.072-0.28-0.168-0.452-0.289
			c-0.172-0.122-0.374-0.275-0.604-0.462c-0.17,0.138-0.35,0.266-0.538,0.383c-0.188,0.117-0.389,0.219-0.601,0.3
			c-0.213,0.084-0.436,0.148-0.668,0.195s-0.484,0.07-0.756,0.07c-0.255,0-0.497-0.022-0.725-0.066
			c-0.229-0.045-0.44-0.109-0.635-0.192s-0.369-0.188-0.522-0.313c-0.154-0.126-0.285-0.269-0.392-0.428
			c-0.107-0.16-0.19-0.34-0.25-0.538C38.871,78.92,38.841,78.705,38.841,78.475z M39.928,78.371c0,0.211,0.036,0.402,0.106,0.577
			c0.071,0.174,0.175,0.325,0.313,0.452c0.138,0.128,0.31,0.228,0.516,0.298c0.207,0.071,0.446,0.106,0.717,0.106
			c0.166,0,0.328-0.018,0.486-0.052c0.158-0.034,0.309-0.081,0.453-0.14c0.143-0.059,0.28-0.13,0.41-0.213s0.249-0.171,0.358-0.265
			c-0.21-0.182-0.42-0.371-0.628-0.567s-0.41-0.394-0.604-0.592s-0.382-0.396-0.562-0.592c-0.181-0.197-0.346-0.389-0.495-0.574
			c-0.202,0.13-0.372,0.259-0.507,0.386c-0.135,0.127-0.245,0.255-0.328,0.383c-0.083,0.127-0.142,0.256-0.179,0.386
			C39.947,78.094,39.928,78.229,39.928,78.371z M40.633,74.145c0,0.109,0.016,0.22,0.046,0.333s0.077,0.232,0.14,0.356
			s0.14,0.255,0.231,0.397c0.091,0.142,0.199,0.3,0.325,0.474c0.296-0.166,0.543-0.319,0.744-0.458
			c0.2-0.14,0.361-0.274,0.483-0.404c0.121-0.13,0.209-0.26,0.264-0.388c0.055-0.131,0.082-0.268,0.082-0.413
			c0-0.118-0.022-0.23-0.064-0.338c-0.042-0.106-0.11-0.202-0.203-0.286c-0.094-0.082-0.21-0.148-0.353-0.196
			c-0.141-0.049-0.312-0.073-0.51-0.073c-0.215,0-0.396,0.027-0.543,0.082s-0.27,0.128-0.365,0.219s-0.165,0.197-0.209,0.318
			C40.655,73.89,40.633,74.015,40.633,74.145z"/>
		<path fill="#090909" d="M55.451,73.137c0,0.077-0.004,0.144-0.012,0.199c-0.008,0.058-0.021,0.104-0.04,0.137
			c-0.019,0.035-0.041,0.061-0.066,0.076c-0.027,0.017-0.057,0.025-0.088,0.025h-2.211v6.813c0,0.032-0.008,0.061-0.024,0.084
			c-0.016,0.025-0.044,0.045-0.085,0.059c-0.04,0.014-0.094,0.026-0.161,0.036c-0.067,0.011-0.151,0.016-0.252,0.016
			c-0.097,0-0.18-0.005-0.248-0.016c-0.069-0.01-0.124-0.022-0.165-0.036c-0.04-0.014-0.068-0.033-0.085-0.059
			c-0.016-0.023-0.024-0.052-0.024-0.084v-6.813h-2.21c-0.032,0-0.062-0.009-0.088-0.025c-0.026-0.016-0.047-0.041-0.063-0.076
			c-0.016-0.033-0.029-0.079-0.04-0.137c-0.01-0.056-0.015-0.122-0.015-0.199s0.005-0.145,0.015-0.204
			c0.01-0.059,0.023-0.106,0.04-0.143s0.037-0.063,0.063-0.079c0.026-0.016,0.056-0.023,0.088-0.023h5.466
			c0.032,0,0.062,0.008,0.088,0.023c0.025,0.017,0.048,0.043,0.066,0.079s0.031,0.084,0.04,0.143
			C55.447,72.992,55.451,73.06,55.451,73.137z"/>
		<path fill="#090909" d="M60.449,77.6c0,0.445-0.059,0.855-0.176,1.23c-0.118,0.374-0.292,0.697-0.525,0.968
			c-0.232,0.271-0.524,0.483-0.874,0.635c-0.351,0.152-0.756,0.229-1.218,0.229c-0.449,0-0.841-0.067-1.175-0.201
			c-0.333-0.134-0.612-0.327-0.834-0.582c-0.223-0.256-0.389-0.565-0.498-0.93c-0.109-0.364-0.164-0.777-0.164-1.239
			c0-0.445,0.058-0.854,0.173-1.229c0.115-0.375,0.29-0.697,0.522-0.969c0.232-0.271,0.523-0.481,0.871-0.632
			c0.349-0.149,0.755-0.225,1.221-0.225c0.449,0,0.841,0.067,1.175,0.2c0.333,0.134,0.612,0.329,0.835,0.584s0.39,0.564,0.5,0.929
			C60.394,76.731,60.449,77.143,60.449,77.6z M59.411,77.667c0-0.296-0.028-0.575-0.083-0.838c-0.055-0.263-0.146-0.494-0.271-0.693
			c-0.128-0.198-0.299-0.354-0.516-0.47c-0.216-0.115-0.486-0.174-0.808-0.174c-0.299,0-0.555,0.054-0.77,0.159
			c-0.213,0.104-0.39,0.253-0.529,0.445c-0.139,0.193-0.243,0.42-0.309,0.684c-0.068,0.263-0.102,0.551-0.102,0.862
			c0,0.3,0.027,0.581,0.083,0.845c0.055,0.263,0.147,0.492,0.275,0.688s0.301,0.353,0.518,0.468
			c0.217,0.115,0.486,0.174,0.809,0.174c0.294,0,0.549-0.053,0.766-0.158c0.216-0.105,0.394-0.253,0.533-0.443
			s0.241-0.417,0.307-0.681C59.378,78.272,59.411,77.982,59.411,77.667z"/>
		<path fill="#090909" d="M66.608,80.395c0,0.031-0.008,0.059-0.022,0.081c-0.014,0.022-0.039,0.041-0.075,0.058
			c-0.037,0.017-0.084,0.028-0.143,0.036s-0.132,0.013-0.216,0.013c-0.093,0-0.169-0.005-0.229-0.013
			c-0.059-0.008-0.104-0.02-0.14-0.036c-0.034-0.017-0.058-0.035-0.069-0.058c-0.013-0.022-0.018-0.05-0.018-0.081v-0.724
			c-0.313,0.344-0.62,0.595-0.924,0.753s-0.611,0.237-0.923,0.237c-0.364,0-0.672-0.061-0.921-0.183
			c-0.249-0.121-0.449-0.287-0.604-0.495c-0.153-0.209-0.265-0.45-0.331-0.729c-0.066-0.277-0.1-0.614-0.1-1.012v-3.315
			c0-0.033,0.006-0.061,0.021-0.082c0.015-0.022,0.042-0.042,0.082-0.06c0.04-0.02,0.094-0.032,0.158-0.037
			c0.064-0.006,0.146-0.01,0.243-0.01c0.097,0,0.178,0.004,0.242,0.01c0.065,0.005,0.116,0.018,0.155,0.037
			c0.038,0.018,0.065,0.037,0.082,0.06c0.016,0.021,0.023,0.049,0.023,0.082v3.183c0,0.319,0.023,0.576,0.07,0.768
			c0.047,0.193,0.117,0.356,0.213,0.492c0.095,0.136,0.215,0.24,0.361,0.316c0.146,0.074,0.316,0.111,0.511,0.111
			c0.25,0,0.5-0.088,0.749-0.267c0.249-0.178,0.514-0.439,0.793-0.783v-3.82c0-0.033,0.008-0.061,0.021-0.082
			c0.014-0.022,0.041-0.042,0.081-0.06c0.041-0.02,0.093-0.032,0.155-0.037c0.063-0.006,0.145-0.01,0.246-0.01
			c0.097,0,0.179,0.004,0.242,0.01c0.065,0.005,0.116,0.018,0.152,0.037c0.037,0.018,0.064,0.037,0.082,0.06
			c0.019,0.021,0.028,0.049,0.028,0.082V80.395z"/>
		<path fill="#090909" d="M71.654,75.286c0,0.089-0.002,0.164-0.006,0.225s-0.012,0.108-0.024,0.143s-0.027,0.062-0.046,0.079
			c-0.019,0.019-0.043,0.027-0.076,0.027c-0.032,0-0.071-0.009-0.118-0.027c-0.046-0.018-0.099-0.036-0.158-0.055
			c-0.059-0.018-0.123-0.035-0.196-0.052c-0.073-0.016-0.152-0.024-0.237-0.024c-0.102,0-0.2,0.021-0.297,0.061
			c-0.098,0.041-0.2,0.107-0.308,0.201c-0.107,0.093-0.219,0.216-0.337,0.37c-0.117,0.154-0.247,0.342-0.389,0.564v3.597
			c0,0.031-0.008,0.059-0.024,0.081c-0.016,0.022-0.043,0.041-0.079,0.058s-0.086,0.028-0.151,0.036
			c-0.064,0.008-0.147,0.013-0.249,0.013c-0.098,0-0.179-0.005-0.243-0.013s-0.116-0.02-0.154-0.036
			c-0.039-0.017-0.065-0.035-0.079-0.058c-0.015-0.022-0.021-0.05-0.021-0.081v-5.467c0-0.033,0.006-0.061,0.019-0.082
			c0.012-0.022,0.036-0.042,0.073-0.06c0.036-0.02,0.082-0.032,0.139-0.037c0.057-0.006,0.132-0.01,0.225-0.01
			c0.09,0,0.163,0.004,0.222,0.01c0.059,0.005,0.104,0.018,0.137,0.037c0.032,0.018,0.057,0.037,0.07,0.06
			c0.015,0.021,0.021,0.049,0.021,0.082v0.796c0.15-0.219,0.291-0.396,0.423-0.535c0.132-0.138,0.256-0.245,0.373-0.325
			c0.117-0.077,0.234-0.132,0.35-0.164c0.115-0.03,0.231-0.045,0.349-0.045c0.054,0,0.112,0.003,0.18,0.009
			c0.066,0.006,0.137,0.018,0.209,0.034c0.073,0.016,0.14,0.034,0.198,0.055s0.1,0.04,0.124,0.061c0.024,0.02,0.04,0.04,0.049,0.058
			c0.008,0.019,0.015,0.042,0.021,0.069c0.007,0.029,0.011,0.07,0.013,0.125S71.654,75.193,71.654,75.286z"/>
		<path fill="#090909" d="M76.015,78.905c0,0.279-0.052,0.528-0.155,0.747c-0.103,0.22-0.249,0.402-0.439,0.553
			c-0.19,0.149-0.417,0.263-0.68,0.341c-0.264,0.076-0.554,0.115-0.87,0.115c-0.194,0-0.379-0.016-0.555-0.045
			c-0.176-0.031-0.334-0.07-0.474-0.117c-0.141-0.046-0.258-0.095-0.355-0.146c-0.098-0.05-0.168-0.096-0.213-0.136
			c-0.044-0.041-0.076-0.098-0.098-0.171c-0.02-0.072-0.029-0.171-0.029-0.297c0-0.077,0.004-0.142,0.012-0.194
			c0.009-0.053,0.018-0.095,0.031-0.128c0.012-0.032,0.029-0.056,0.051-0.07c0.022-0.014,0.048-0.021,0.076-0.021
			c0.045,0,0.11,0.027,0.197,0.082s0.194,0.114,0.322,0.179c0.127,0.065,0.277,0.125,0.452,0.18
			c0.174,0.055,0.374,0.082,0.601,0.082c0.171,0,0.325-0.019,0.462-0.055c0.138-0.036,0.258-0.09,0.358-0.161
			c0.102-0.071,0.18-0.161,0.234-0.271s0.082-0.238,0.082-0.388c0-0.154-0.041-0.284-0.118-0.39
			c-0.08-0.104-0.184-0.198-0.313-0.279s-0.275-0.152-0.438-0.215c-0.161-0.063-0.328-0.129-0.501-0.198
			c-0.172-0.068-0.34-0.146-0.504-0.233s-0.311-0.193-0.44-0.319c-0.13-0.125-0.233-0.274-0.313-0.449
			c-0.078-0.174-0.118-0.382-0.118-0.625c0-0.215,0.041-0.421,0.124-0.616c0.083-0.196,0.207-0.369,0.374-0.517
			c0.165-0.147,0.373-0.267,0.622-0.355c0.248-0.089,0.539-0.134,0.872-0.134c0.146,0,0.291,0.013,0.437,0.036
			c0.146,0.025,0.277,0.055,0.395,0.091c0.117,0.037,0.218,0.077,0.301,0.119c0.083,0.043,0.146,0.08,0.188,0.112
			c0.043,0.032,0.071,0.062,0.085,0.085c0.014,0.024,0.024,0.052,0.03,0.082c0.006,0.031,0.012,0.068,0.019,0.113
			c0.006,0.044,0.009,0.099,0.009,0.163c0,0.068-0.003,0.128-0.009,0.179c-0.007,0.052-0.017,0.093-0.03,0.125
			s-0.032,0.056-0.052,0.07c-0.021,0.014-0.043,0.021-0.066,0.021c-0.036,0-0.09-0.022-0.158-0.066s-0.158-0.093-0.268-0.143
			c-0.108-0.051-0.237-0.099-0.385-0.143c-0.149-0.045-0.317-0.066-0.508-0.066c-0.17,0-0.32,0.019-0.449,0.057
			c-0.13,0.039-0.235,0.094-0.319,0.164c-0.083,0.071-0.146,0.155-0.188,0.252c-0.043,0.098-0.064,0.203-0.064,0.316
			c0,0.158,0.041,0.29,0.121,0.397c0.082,0.107,0.188,0.201,0.315,0.282c0.131,0.082,0.278,0.154,0.444,0.219
			c0.166,0.065,0.335,0.132,0.507,0.2c0.172,0.069,0.343,0.146,0.511,0.231c0.168,0.084,0.316,0.188,0.445,0.31
			c0.131,0.121,0.234,0.268,0.313,0.437C75.976,78.469,76.015,78.671,76.015,78.905z"/>
		<path fill="#090909" d="M85.204,74.988c0,0.394-0.065,0.748-0.195,1.063s-0.315,0.585-0.556,0.807
			c-0.24,0.224-0.536,0.396-0.887,0.517c-0.351,0.122-0.768,0.183-1.254,0.183H81.42v2.83c0,0.032-0.009,0.061-0.027,0.084
			c-0.019,0.025-0.047,0.045-0.085,0.059c-0.039,0.014-0.091,0.026-0.157,0.036c-0.068,0.011-0.152,0.016-0.254,0.016
			c-0.101,0-0.185-0.005-0.251-0.016c-0.066-0.01-0.12-0.022-0.161-0.036s-0.068-0.033-0.085-0.059
			c-0.017-0.023-0.024-0.052-0.024-0.084v-7.251c0-0.163,0.043-0.277,0.128-0.347s0.181-0.103,0.285-0.103h1.683
			c0.17,0,0.333,0.006,0.488,0.021c0.156,0.015,0.34,0.044,0.553,0.091s0.43,0.134,0.65,0.261c0.22,0.128,0.408,0.285,0.562,0.472
			c0.153,0.186,0.272,0.401,0.355,0.646S85.204,74.692,85.204,74.988z M84.104,75.074c0-0.32-0.06-0.588-0.18-0.803
			s-0.268-0.374-0.443-0.479s-0.358-0.172-0.546-0.2c-0.188-0.028-0.372-0.043-0.55-0.043H81.42v3.152h0.941
			c0.315,0,0.578-0.04,0.786-0.121c0.209-0.082,0.384-0.193,0.525-0.337s0.249-0.315,0.322-0.517
			C84.068,75.526,84.104,75.308,84.104,75.074z"/>
		<path fill="#090909" d="M91.167,74.916c0,0.016,0,0.033-0.003,0.051c-0.002,0.019-0.006,0.037-0.01,0.059
			c-0.003,0.02-0.009,0.042-0.015,0.066s-0.014,0.051-0.021,0.079l-1.864,5.191c-0.017,0.046-0.037,0.082-0.063,0.109
			c-0.026,0.029-0.066,0.051-0.118,0.067c-0.053,0.017-0.12,0.027-0.201,0.034c-0.081,0.006-0.183,0.009-0.304,0.009
			s-0.223-0.005-0.304-0.013s-0.146-0.02-0.196-0.036s-0.091-0.038-0.119-0.066s-0.051-0.063-0.066-0.104l-1.858-5.191
			c-0.017-0.049-0.03-0.091-0.04-0.128c-0.01-0.036-0.016-0.063-0.018-0.082c-0.002-0.018-0.004-0.033-0.004-0.045
			c0-0.033,0.009-0.062,0.025-0.085c0.015-0.024,0.042-0.044,0.082-0.059c0.038-0.014,0.089-0.023,0.151-0.027
			s0.141-0.006,0.234-0.006c0.116,0,0.211,0.004,0.281,0.01c0.071,0.005,0.126,0.018,0.164,0.032
			c0.039,0.017,0.067,0.037,0.085,0.062c0.019,0.024,0.036,0.055,0.052,0.091l1.543,4.506l0.024,0.074l0.018-0.074l1.525-4.506
			c0.008-0.036,0.021-0.066,0.041-0.091c0.021-0.024,0.051-0.045,0.089-0.062c0.038-0.015,0.091-0.027,0.158-0.032
			c0.066-0.006,0.154-0.01,0.264-0.01c0.093,0,0.17,0.002,0.231,0.006c0.061,0.004,0.107,0.015,0.143,0.031
			c0.035,0.016,0.058,0.035,0.072,0.058C91.16,74.855,91.167,74.883,91.167,74.916z"/>
		<path fill="#090909" d="M95.206,79.992c0,0.117-0.009,0.211-0.025,0.279c-0.015,0.069-0.04,0.12-0.072,0.152
			s-0.081,0.063-0.146,0.091c-0.064,0.029-0.139,0.052-0.222,0.07c-0.083,0.018-0.172,0.033-0.265,0.045
			c-0.093,0.014-0.186,0.019-0.279,0.019c-0.283,0-0.525-0.037-0.729-0.112c-0.202-0.074-0.368-0.188-0.498-0.34
			c-0.129-0.151-0.224-0.344-0.282-0.577c-0.059-0.232-0.088-0.507-0.088-0.823v-3.194h-0.766c-0.061,0-0.109-0.032-0.146-0.097
			s-0.056-0.17-0.056-0.316c0-0.076,0.006-0.142,0.017-0.194c0.01-0.053,0.023-0.095,0.039-0.131
			c0.017-0.033,0.038-0.059,0.063-0.072c0.026-0.015,0.057-0.021,0.088-0.021h0.76v-1.3c0-0.029,0.007-0.055,0.021-0.08
			c0.015-0.022,0.041-0.045,0.079-0.063c0.039-0.019,0.091-0.031,0.155-0.039s0.146-0.012,0.243-0.012
			c0.102,0,0.184,0.004,0.249,0.012c0.064,0.008,0.115,0.021,0.151,0.039c0.037,0.019,0.063,0.041,0.079,0.063
			c0.017,0.025,0.024,0.051,0.024,0.08v1.3h1.403c0.031,0,0.061,0.006,0.084,0.021c0.024,0.014,0.046,0.039,0.063,0.072
			c0.019,0.036,0.032,0.078,0.04,0.131c0.009,0.053,0.013,0.118,0.013,0.194c0,0.146-0.019,0.252-0.055,0.316
			c-0.037,0.064-0.085,0.097-0.146,0.097h-1.403v3.049c0,0.376,0.056,0.661,0.167,0.854s0.311,0.288,0.598,0.288
			c0.094,0,0.177-0.009,0.249-0.027c0.073-0.018,0.139-0.037,0.194-0.058c0.058-0.02,0.105-0.039,0.146-0.058
			c0.04-0.018,0.076-0.027,0.109-0.027c0.02,0,0.039,0.006,0.057,0.016c0.019,0.01,0.033,0.029,0.043,0.058s0.02,0.066,0.027,0.115
			C95.202,79.859,95.206,79.92,95.206,79.992z"/>
		<path fill="#090909" d="M97.822,79.883c0,0.288-0.046,0.479-0.142,0.575c-0.095,0.095-0.269,0.143-0.52,0.143
			c-0.242,0-0.411-0.047-0.504-0.141c-0.093-0.093-0.14-0.278-0.14-0.559c0-0.286,0.047-0.479,0.143-0.573
			c0.095-0.096,0.269-0.144,0.52-0.144c0.243,0,0.411,0.047,0.504,0.141C97.776,79.418,97.822,79.604,97.822,79.883z"/>
		<path fill="#090909" d="M106.672,80.09c0,0.081-0.004,0.148-0.013,0.203c-0.008,0.056-0.021,0.102-0.039,0.14
			c-0.019,0.039-0.041,0.066-0.067,0.086c-0.026,0.018-0.058,0.027-0.094,0.027h-3.474c-0.094,0-0.182-0.031-0.264-0.095
			c-0.084-0.063-0.125-0.173-0.125-0.331v-7.275c0-0.032,0.009-0.062,0.023-0.085c0.018-0.024,0.045-0.044,0.086-0.058
			c0.04-0.014,0.095-0.026,0.164-0.036c0.068-0.011,0.152-0.016,0.249-0.016c0.102,0,0.185,0.005,0.252,0.016
			c0.066,0.01,0.12,0.022,0.161,0.036c0.04,0.014,0.068,0.033,0.084,0.058c0.018,0.023,0.025,0.053,0.025,0.085v6.796h2.817
			c0.036,0,0.067,0.009,0.094,0.027s0.049,0.044,0.067,0.079c0.018,0.034,0.031,0.08,0.039,0.136
			C106.668,79.94,106.672,80.009,106.672,80.09z"/>
		<path fill="#090909" d="M110.321,79.992c0,0.117-0.008,0.211-0.023,0.279c-0.017,0.069-0.041,0.12-0.073,0.152
			s-0.081,0.063-0.146,0.091c-0.065,0.029-0.139,0.052-0.222,0.07c-0.084,0.018-0.171,0.033-0.265,0.045
			c-0.093,0.014-0.187,0.019-0.279,0.019c-0.283,0-0.526-0.037-0.729-0.112c-0.203-0.074-0.368-0.188-0.498-0.34
			c-0.13-0.151-0.225-0.344-0.283-0.577c-0.059-0.232-0.088-0.507-0.088-0.823v-3.194h-0.766c-0.06,0-0.108-0.032-0.145-0.097
			s-0.055-0.17-0.055-0.316c0-0.076,0.005-0.142,0.015-0.194s0.023-0.095,0.04-0.131c0.016-0.033,0.037-0.059,0.063-0.072
			c0.026-0.015,0.056-0.021,0.088-0.021h0.759v-1.3c0-0.029,0.008-0.055,0.022-0.08c0.014-0.022,0.04-0.045,0.077-0.063
			c0.039-0.019,0.091-0.031,0.156-0.039c0.064-0.008,0.146-0.012,0.243-0.012c0.101,0,0.184,0.004,0.248,0.012
			c0.065,0.008,0.116,0.021,0.151,0.039c0.037,0.019,0.063,0.041,0.08,0.063c0.016,0.025,0.023,0.051,0.023,0.08v1.3h1.403
			c0.032,0,0.061,0.006,0.085,0.021c0.024,0.014,0.046,0.039,0.064,0.072c0.018,0.036,0.031,0.078,0.039,0.131
			s0.012,0.118,0.012,0.194c0,0.146-0.019,0.252-0.055,0.316s-0.085,0.097-0.146,0.097h-1.403v3.049
			c0,0.376,0.057,0.661,0.167,0.854c0.111,0.192,0.312,0.288,0.599,0.288c0.094,0,0.176-0.009,0.249-0.027
			c0.072-0.018,0.138-0.037,0.194-0.058c0.057-0.02,0.105-0.039,0.146-0.058c0.04-0.018,0.077-0.027,0.109-0.027
			c0.021,0,0.04,0.006,0.058,0.016c0.019,0.01,0.032,0.029,0.043,0.058c0.01,0.028,0.02,0.066,0.027,0.115
			S110.321,79.92,110.321,79.992z"/>
		<path fill="#090909" d="M116.188,80.395c0,0.031-0.007,0.06-0.021,0.084c-0.015,0.024-0.038,0.044-0.073,0.058
			c-0.034,0.014-0.079,0.025-0.137,0.033c-0.057,0.008-0.125,0.013-0.206,0.013c-0.085,0-0.156-0.005-0.213-0.013
			c-0.058-0.008-0.103-0.02-0.139-0.033c-0.037-0.014-0.063-0.033-0.08-0.058c-0.016-0.024-0.024-0.053-0.024-0.084v-0.724
			c-0.287,0.312-0.585,0.555-0.896,0.729c-0.31,0.174-0.648,0.262-1.017,0.262c-0.401,0-0.743-0.078-1.027-0.234
			c-0.283-0.155-0.513-0.366-0.689-0.631c-0.176-0.266-0.304-0.577-0.385-0.936s-0.122-0.735-0.122-1.133
			c0-0.47,0.051-0.895,0.152-1.272s0.251-0.701,0.449-0.968c0.198-0.268,0.444-0.474,0.738-0.617s0.633-0.216,1.017-0.216
			c0.32,0,0.613,0.07,0.878,0.209c0.266,0.141,0.527,0.346,0.786,0.617v-3.177c0-0.027,0.007-0.055,0.021-0.082
			c0.015-0.026,0.042-0.046,0.082-0.06c0.04-0.015,0.093-0.026,0.155-0.037c0.063-0.01,0.143-0.016,0.239-0.016
			c0.102,0,0.185,0.006,0.249,0.016c0.065,0.011,0.116,0.022,0.152,0.037c0.036,0.014,0.063,0.033,0.081,0.06
			c0.019,0.027,0.027,0.055,0.027,0.082V80.395z M115.18,76.549c-0.271-0.336-0.532-0.592-0.786-0.768
			c-0.253-0.176-0.518-0.265-0.793-0.265c-0.255,0-0.471,0.062-0.649,0.183s-0.323,0.281-0.435,0.479s-0.191,0.423-0.242,0.674
			c-0.051,0.252-0.076,0.507-0.076,0.766c0,0.275,0.021,0.545,0.063,0.808c0.043,0.264,0.116,0.497,0.222,0.701
			c0.105,0.205,0.245,0.369,0.419,0.492c0.175,0.124,0.393,0.186,0.656,0.186c0.134,0,0.263-0.019,0.386-0.055
			s0.25-0.098,0.38-0.183c0.129-0.085,0.265-0.195,0.406-0.331c0.143-0.136,0.292-0.302,0.449-0.5V76.549z"/>
		<path fill="#090909" d="M119.334,79.883c0,0.288-0.048,0.479-0.143,0.575c-0.096,0.095-0.269,0.143-0.52,0.143
			c-0.242,0-0.411-0.047-0.505-0.141c-0.092-0.093-0.139-0.278-0.139-0.559c0-0.286,0.048-0.479,0.143-0.573
			c0.096-0.096,0.269-0.144,0.52-0.144c0.242,0,0.41,0.047,0.504,0.141C119.287,79.418,119.334,79.604,119.334,79.883z"/>
	</g>
</g>
</svg>
