<?xml version="1.0" encoding="utf-8"?>
<!-- Generator: Adobe Illustrator 14.0.0, SVG Export Plug-In . SVG Version: 6.00 Build 43363)  -->
<!DOCTYPE svg PUBLIC "-//W3C//DTD SVG 1.1//EN" "http://www.w3.org/Graphics/SVG/1.1/DTD/svg11.dtd">
<svg version="1.1" id="Capa_1" xmlns="http://www.w3.org/2000/svg" xmlns:xlink="http://www.w3.org/1999/xlink" x="0px" y="0px"
	 width="512px" height="512px" viewBox="0 0 512 512" enable-background="new 0 0 512 512" xml:space="preserve">
<g>
	<line fill="none" stroke="#FF7C5B" stroke-width="30" stroke-miterlimit="10" x1="0.496" y1="496.816" x2="511.504" y2="496.816"/>
	<path fill="none" stroke="#FF7C5B" stroke-width="30" stroke-miterlimit="10" d="M303.907,263.121h-95.814
		c-83.315,0-150.856,67.541-150.856,150.856v82.839h397.526v-82.839C454.763,330.662,387.223,263.121,303.907,263.121z"/>
	
		<rect x="167.215" y="184.041" fill="none" stroke="#FF7C5B" stroke-width="30" stroke-miterlimit="10" width="177.57" height="79.081"/>
	<polygon fill="none" stroke="#FF7C5B" stroke-width="30" stroke-miterlimit="10" points="296.771,60.876 256,20.952 
		215.228,60.876 215.228,184.041 296.771,184.041 	"/>
	<line fill="none" stroke="#FF7C5B" stroke-width="30" stroke-miterlimit="10" x1="219.305" y1="97.507" x2="292.695" y2="97.507"/>
	<g>
		
			<line fill="none" stroke="#FF7C5B" stroke-width="30" stroke-miterlimit="10" x1="226.514" y1="184.041" x2="226.514" y2="223.581"/>
		
			<line fill="none" stroke="#FF7C5B" stroke-width="30" stroke-miterlimit="10" x1="285.486" y1="184.041" x2="285.486" y2="223.581"/>
	</g>
	
		<rect x="57.237" y="436.933" fill="none" stroke="#FF7C5B" stroke-width="30.4266" stroke-miterlimit="10" width="158.039" height="59.884"/>
	
		<rect x="296.725" y="436.933" fill="none" stroke="#FF7C5B" stroke-width="30.4266" stroke-miterlimit="10" width="158.038" height="59.884"/>
	<path fill="none" stroke="#FF7C5B" stroke-width="30" stroke-miterlimit="10" d="M296.725,496.816h-81.449V433.45
		c0-17.07,8.039-33.144,21.697-43.384l18.241-13.675l19.008,13.711c14.129,10.192,22.502,26.554,22.502,43.976V496.816
		L296.725,496.816z"/>
	<path fill="none" stroke="#FF7C5B" stroke-width="30" stroke-miterlimit="10" d="M215.228,60.876c0,0-68.102,72.412-214.732,73.177
		"/>
	<path fill="none" stroke="#FF7C5B" stroke-width="30" stroke-miterlimit="10" d="M296.771,60.876c0,0,68.102,72.412,214.732,73.177
		"/>
</g>
</svg>
