<?xml version="1.0" encoding="utf-8"?>
<!-- Generator: Adobe Illustrator 14.0.0, SVG Export Plug-In . SVG Version: 6.00 Build 43363)  -->
<!DOCTYPE svg PUBLIC "-//W3C//DTD SVG 1.1//EN" "http://www.w3.org/Graphics/SVG/1.1/DTD/svg11.dtd">
<svg version="1.1" id="Layer_3" xmlns="http://www.w3.org/2000/svg" xmlns:xlink="http://www.w3.org/1999/xlink" x="0px" y="0px"
	 width="512px" height="512px" viewBox="0 0 512 512" enable-background="new 0 0 512 512" xml:space="preserve">
<g>
	<g>
		<g>
			<circle fill="#FF7C5B" cx="376.459" cy="213.568" r="18.34"/>
			<path fill="#FF7C5B" d="M418.641,57.68h-23.842V39.34c0-10.13-8.21-18.34-18.34-18.34s-18.34,8.21-18.34,18.34v18.34h-83.446
				V39.34c0-10.13-8.21-18.34-18.34-18.34c-10.13,0-18.34,8.21-18.34,18.34v18.34h-82.529V39.34c0-10.13-8.209-18.34-18.34-18.34
				s-18.34,8.21-18.34,18.34v18.34H95.859c-40.45,0-73.359,32.91-73.359,73.359v286.102c0,40.448,32.91,73.359,73.359,73.359h140.3
				c10.13,0,18.34-8.21,18.34-18.34s-8.209-18.34-18.34-18.34h-140.3c-20.224,0-36.68-16.455-36.68-36.68V131.039
				c0-20.225,16.456-36.68,36.68-36.68h22.925v18.34c0,10.13,8.209,18.34,18.34,18.34s18.34-8.21,18.34-18.34v-18.34h82.529v18.34
				c0,10.13,8.209,18.34,18.34,18.34c10.13,0,18.34-8.21,18.34-18.34v-18.34h83.446v18.34c0,10.13,8.21,18.34,18.34,18.34
				s18.34-8.21,18.34-18.34v-18.34h23.842c20.225,0,36.68,16.455,36.68,36.68v104.537c0,10.13,8.21,18.34,18.34,18.34
				c10.131,0,18.34-8.21,18.34-18.34V131.039C492,90.589,459.089,57.68,418.641,57.68z"/>
			<path fill="#FF7C5B" d="M381.044,268.588c-61.177,0-110.956,49.778-110.956,110.956c0,61.177,49.779,110.956,110.956,110.956
				S492,440.721,492,379.544C492,318.366,442.221,268.588,381.044,268.588z M381.044,453.82c-40.959,0-74.276-33.317-74.276-74.276
				s33.317-74.276,74.276-74.276s74.276,33.317,74.276,74.276S422.003,453.82,381.044,453.82z"/>
			<path fill="#FF7C5B" d="M407.637,361.204h-8.253v-19.257c0-10.131-8.21-18.34-18.34-18.34s-18.34,8.209-18.34,18.34v37.597
				c0,10.131,8.21,18.34,18.34,18.34h26.593c10.13,0,18.34-8.209,18.34-18.34S417.767,361.204,407.637,361.204z"/>
			<circle fill="#FF7C5B" cx="296.681" cy="213.568" r="18.34"/>
			<circle fill="#FF7C5B" cx="216.902" cy="293.347" r="18.34"/>
			<circle fill="#FF7C5B" cx="137.124" cy="213.568" r="18.34"/>
			<circle fill="#FF7C5B" cx="137.124" cy="293.347" r="18.34"/>
			<circle fill="#FF7C5B" cx="137.124" cy="373.125" r="18.34"/>
			<circle fill="#FF7C5B" cx="216.902" cy="373.125" r="18.34"/>
			<circle fill="#FF7C5B" cx="216.902" cy="213.568" r="18.34"/>
		</g>
	</g>
</g>
</svg>
