<?xml version="1.0" encoding="utf-8"?>
<!-- Generator: Adobe Illustrator 14.0.0, SVG Export Plug-In . SVG Version: 6.00 Build 43363)  -->
<!DOCTYPE svg PUBLIC "-//W3C//DTD SVG 1.1//EN" "http://www.w3.org/Graphics/SVG/1.1/DTD/svg11.dtd">
<svg version="1.1" id="Layer_3" xmlns="http://www.w3.org/2000/svg" xmlns:xlink="http://www.w3.org/1999/xlink" x="0px" y="0px"
	 width="512px" height="512px" viewBox="0 0 512 512" enable-background="new 0 0 512 512" xml:space="preserve">
<path fill="#FF7C5B" d="M253.872,238.096c43.661,0,79.056-35.395,79.056-79.056c0-43.662-35.395-79.056-79.056-79.056
	c-43.662,0-79.056,35.395-79.056,79.056c0,0.005,0,0.011,0,0.016C174.869,202.693,210.235,238.052,253.872,238.096L253.872,238.096z
	 M253.872,112c25.988,0,47.056,21.068,47.056,47.056s-21.067,47.056-47.056,47.056s-47.056-21.067-47.056-47.056
	C206.851,133.083,227.898,112.035,253.872,112z"/>
<path fill="#FF7C5B" d="M104.528,284.561c33.579,0,60.8-27.222,60.8-60.801c0-33.579-27.221-60.8-60.8-60.8
	c-33.579,0-60.8,27.221-60.8,60.8C43.728,257.339,70.949,284.561,104.528,284.561L104.528,284.561z M104.528,194.96
	c15.906,0,28.8,12.894,28.8,28.8c0,15.906-12.895,28.8-28.8,28.8s-28.8-12.894-28.8-28.8
	C75.728,207.854,88.622,194.96,104.528,194.96L104.528,194.96z"/>
<path fill="#FF7C5B" d="M403.2,284.561c33.579,0,60.8-27.222,60.8-60.801c0-33.579-27.221-60.8-60.8-60.8s-60.8,27.221-60.8,60.8
	l0,0C342.4,257.339,369.621,284.561,403.2,284.561z M403.2,194.96c15.905,0,28.8,12.894,28.8,28.8c0,15.906-12.895,28.8-28.8,28.8
	s-28.8-12.894-28.8-28.8l0,0C374.4,207.854,387.295,194.96,403.2,194.96z"/>
<path fill="#FF7C5B" d="M405.328,316.656c-14.026,0.093-27.809,3.684-40.096,10.447c-23.732-37.57-64.8-60.652-109.232-61.392
	c-44.432,0.739-85.5,23.821-109.232,61.392c-12.288-6.764-26.07-10.354-40.096-10.447C54.276,319.213,13.773,363.59,16,416
	c0,8.837,7.164,16,16,16s16-7.163,16-16c-2.182-34.727,23.974-64.749,58.672-67.344c8.842,0.067,17.522,2.374,25.232,6.704
	c-7.541,19.003-11.401,39.267-11.376,59.712c0,8.836,7.164,16,16,16c8.837,0,16-7.164,16-16c0-64.721,46.4-117.36,103.472-117.36
	c57.072,0,103.473,52.64,103.473,117.36c0,8.836,7.162,16,16,16c8.836,0,16-7.164,16-16c0.024-20.445-3.836-40.709-11.377-59.712
	c7.71-4.33,16.391-6.637,25.232-6.704C440.026,351.251,466.183,381.273,464,416c0,8.837,7.163,16,16,16s16-7.163,16-16
	C498.227,363.59,457.724,319.213,405.328,316.656L405.328,316.656z"/>
</svg>
